PathFileType	4	(X/Y/Z)	Kaydara	
DataRate	CameraRate	NumFrames	NumMarkers	Units	OrigDataRate	OrigDataStartFrame	OrigNumFrames	
240.00	240.00	4	72	mm	240.00	178	355	
Frame#	Time	Hips			RightUpLeg			RightLeg			RightFoot			RightFoot_End			LeftUpLeg			LeftLeg			LeftFoot			LeftFoot_End			Spine			Spine1			Spine2			Spine3			Neck			Head			Head_End			RightShoulder			RightArm			RightForeArm			RightHand			RightHandThumb1			RightHandThumb2			RightHandThumb3			RightHandThumb3_End			RightInHandIndex			RightHandIndex1			RightHandIndex2			RightHandIndex3			RightHandIndex3_End			RightInHandMiddle			RightHandMiddle1			RightHandMiddle2			RightHandMiddle3			RightHandMiddle3_End			RightInHandRing			RightHandRing1			RightHandRing2			RightHandRing3			RightHandRing3_End			RightInHandPinky			RightHandPinky1			RightHandPinky2			RightHandPinky3			RightHandPinky3_End			LeftShoulder			LeftArm			LeftForeArm			LeftHand			LeftHandThumb1			LeftHandThumb2			LeftHandThumb3			LeftHandThumb3_End			LeftInHandIndex			LeftHandIndex1			LeftHandIndex2			LeftHandIndex3			LeftHandIndex3_End			LeftInHandMiddle			LeftHandMiddle1			LeftHandMiddle2			LeftHandMiddle3			LeftHandMiddle3_End			LeftInHandRing			LeftHandRing1			LeftHandRing2			LeftHandRing3			LeftHandRing3_End			LeftInHandPinky			LeftHandPinky1			LeftHandPinky2			LeftHandPinky3			LeftHandPinky3_End			
		X1	Y1	Z1	X2	Y2	Z2	X3	Y3	Z3	X4	Y4	Z4	X5	Y5	Z5	X6	Y6	Z6	X7	Y7	Z7	X8	Y8	Z8	X9	Y9	Z9	X10	Y10	Z10	X11	Y11	Z11	X12	Y12	Z12	X13	Y13	Z13	X14	Y14	Z14	X15	Y15	Z15	X16	Y16	Z16	X17	Y17	Z17	X18	Y18	Z18	X19	Y19	Z19	X20	Y20	Z20	X21	Y21	Z21	X22	Y22	Z22	X23	Y23	Z23	X24	Y24	Z24	X25	Y25	Z25	X26	Y26	Z26	X27	Y27	Z27	X28	Y28	Z28	X29	Y29	Z29	X30	Y30	Z30	X31	Y31	Z31	X32	Y32	Z32	X33	Y33	Z33	X34	Y34	Z34	X35	Y35	Z35	X36	Y36	Z36	X37	Y37	Z37	X38	Y38	Z38	X39	Y39	Z39	X40	Y40	Z40	X41	Y41	Z41	X42	Y42	Z42	X43	Y43	Z43	X44	Y44	Z44	X45	Y45	Z45	X46	Y46	Z46	X47	Y47	Z47	X48	Y48	Z48	X49	Y49	Z49	X50	Y50	Z50	X51	Y51	Z51	X52	Y52	Z52	X53	Y53	Z53	X54	Y54	Z54	X55	Y55	Z55	X56	Y56	Z56	X57	Y57	Z57	X58	Y58	Z58	X59	Y59	Z59	X60	Y60	Z60	X61	Y61	Z61	X62	Y62	Z62	X63	Y63	Z63	X64	Y64	Z64	X65	Y65	Z65	X66	Y66	Z66	X67	Y67	Z67	X68	Y68	Z68	X69	Y69	Z69	X70	Y70	Z70	X71	Y71	Z71	X72	Y72	Z72	

178	0.738	6921.0129	906.651	56.2195	6987.581158545174	886.4414428926963	-1.2324534731538792	6906.595780340347	483.11126899324285	-77.85474685165057	6926.10255990383	105.97853913891828	-163.818184585631	6851.139184403634	28.928017696834427	-5.793704131635	6862.298650973647	897.9695212693894	125.01744995182369	6803.091422499871	494.31788894280186	220.19782076748118	6757.558553069791	62.839264836990765	295.267233233387	6627.0099190834235	-14.753604590965633	179.25811668124626	6883.737124074573	1035.7811705767647	6.955778904635317	6838.607810778519	1106.4960839205899	-42.210367264703066	6786.832521427767	1174.537989211959	-96.40990990396747	6730.449998694081	1229.7221063287798	-153.39224811353233	6669.541805841671	1288.6322487505945	-213.58250584841966	6612.6570589887915	1341.8892423137972	-267.5241430153449	6491.344234945071	1431.501946964193	-319.7389485527987	6712.331247550201	1271.3854325139266	-214.48969816858462	6786.680203195853	1284.962082006114	-329.272803468861	6793.748332089827	1024.2916307961468	-363.0305917443404	6834.81021978098	881.297880067683	-543.6780375536589	6845.219040641668	891.4848546062428	-566.4074109935555	6834.858445708903	893.8834224305213	-592.6715407715028	6827.18480291983	892.1875090373908	-611.000398532891	6820.395363065537	887.8939381157248	-626.3133194044274	6846.684972262756	880.1277015803782	-568.697628729631	6853.800026127864	866.8262325666694	-606.788783354489	6847.242365883724	858.7694057546798	-632.9398251663952	6836.669540835256	858.1932705740106	-646.0150416777584	6823.536712795333	860.7064563888207	-654.6904444473951	6844.643173432452	871.4919627487959	-567.4596333392036	6850.481858302581	853.846692759037	-603.9430697994114	6843.01928056861	843.9602681190513	-632.1917081670884	6830.116282744809	842.7398216663032	-647.8285726447577	6815.674989859162	845.2343090951935	-657.2539910654111	6843.134359278005	865.6934113190487	-565.6244168724305	6847.394508840931	844.7383966884064	-596.761266296296	6840.565975674009	835.0305478439639	-621.0315605058427	6827.947867004078	833.2740612654075	-635.9279766811597	6814.287830050675	835.3450094871246	-644.7018225334621	6840.281097914704	859.685786959423	-562.3154665854555	6842.818578033812	836.6344032736382	-588.8847753680411	6836.825441767088	827.2505945698239	-607.6355508329804	6827.367731593613	825.1905354136203	-618.1701952849711	6815.12097308672	826.5768107609167	-625.7519802030683	6666.53768186262	1267.2663076941303	-171.19096748705343	6596.88582358245	1204.6370482229504	-82.46146269034696	6690.857413125851	1038.4358354303606	-239.65692595649227	6814.4944435534535	908.4513847189323	-401.08725233022307	6799.676250299614	916.7956557363383	-429.0353324172776	6792.432295088911	903.5662370258742	-463.2904678218739	6786.546217972815	891.6223331917618	-485.86166677894346	6780.919469788418	879.3289767637038	-503.57980306350146	6793.951141430249	909.1546889742765	-426.39930657798527	6765.27881507692	894.109437407587	-462.90742035084907	6752.533724887951	876.2514100964906	-491.5031301878444	6751.476858540319	864.4858354660826	-509.2449785458278	6755.233929558488	854.3000899684521	-523.9055556447366	6793.003283829472	901.8994905408043	-421.787730109896	6764.522404611748	883.3025716945563	-454.9013340058333	6750.591912510366	862.8981786153931	-485.3820176257042	6749.305797647818	848.2630505573784	-506.43999400830864	6753.411349698678	836.9039079678728	-522.3126727783743	6792.98089675236	897.2117956226216	-417.56450597661984	6767.18999057783	876.6344754638383	-443.47677804205574	6755.07036842721	857.9406226756921	-469.2531394634776	6753.84163862357	843.3409830697826	-489.1453138947754	6757.707508196032	832.4316934428231	-503.87064038301025	6794.450603642203	891.8181041955127	-411.9033651306191	6771.408955684027	869.7964325725707	-432.07919721732566	6761.851816493453	853.4977991314711	-451.37359358022934	6761.027074746458	842.2057394223956	-465.2317490998415	6764.492753755497	832.1718168008033	-477.90117443233567
179	0.742	6921.0129	906.651	56.2195	6987.121814451488	886.2352685818693	-1.42361197310586	6906.10897373808	482.86605327250294	-77.77882572352189	6926.382559598609	105.8952148582797	-164.02024377922163	6851.423482440908	28.806943420661323	-6.012491687107673	6862.744440054838	898.1730375841813	125.21048133282643	6803.642101485908	494.5337238296441	220.49141170585267	6757.732820202227	63.05708284922823	295.18161449492015	6627.283763690271	-14.648606007148144	179.14707356984198	6883.809146658561	1035.7998611452676	6.9556029204758545	6838.655753359374	1106.5362830789227	-42.155515657738825	6786.844282171743	1174.603145755048	-96.28230913569242	6730.407689684272	1229.814021457588	-153.16756858298203	6669.440951004333	1288.7487628533256	-213.25520436198815	6612.505818469467	1342.0295121914903	-267.1016019604542	6491.1456414629265	1431.6138975464996	-319.2394833566837	6712.105535601322	1271.3646333895813	-214.22005643029732	6785.968410598579	1284.5328822994247	-328.79424981927025	6792.427122234499	1024.321999937125	-361.88809581666254	6832.523839060394	881.6169412283831	-542.1246828438233	6842.789420385842	891.9040460649755	-564.8119977319097	6832.38646447862	894.3291756864833	-590.9432196687857	6824.690313030732	892.6422168391462	-609.1821295374036	6817.888089778254	888.3479470284901	-624.4222967867619	6844.256825542561	880.5278138187848	-567.1171916487568	6851.226401233707	867.2890757723634	-605.1355639920936	6844.623307038291	859.244156282987	-631.185308079963	6834.058460298122	858.6609037806732	-644.1732690756003	6820.956670496071	861.1584043213497	-652.7600736994939	6842.241758540481	871.8624268785428	-565.8864185336002	6847.9529917003665	854.2623151617138	-602.302786326181	6840.444905275389	844.3847286658852	-630.4420144953227	6827.553485592143	843.1537014603714	-645.9741485798477	6813.147103436605	845.630056994476	-655.3028871632721	6840.754992919496	866.0416007167993	-564.0586787559063	6844.918451202237	845.1085179990523	-595.1434237471412	6838.054618137171	835.404051359886	-619.3196062684472	6825.449996006329	833.6350639848247	-634.1156657688063	6811.823882667849	835.6878761858314	-642.7989229097284	6837.935690104882	860.0043398081767	-560.7563827229964	6840.403528775058	836.9557356129767	-587.2837147688069	6834.389362315947	827.5677961161837	-605.9613036221698	6824.944989877594	825.4953104991652	-616.4237993973034	6812.730296831824	826.8636163053936	-623.9259428206402	6666.609722221153	1267.5083578493197	-170.8780354228365	6597.518492613973	1205.4679593200815	-81.96851744485967	6690.439130987537	1038.8353724697579	-238.60005041811297	6812.631741477504	908.4360667172878	-399.6318734691096	6797.772740129869	916.7647304377674	-427.3517053479602	6790.414179656986	903.5114856135904	-461.3986216099012	6784.456329197107	891.5474622219524	-483.8300670573679	6778.776622791593	879.2343157056894	-501.4361883623978	6792.082407102752	909.1089787113024	-424.7092212168608	6763.388631545199	894.0072695229848	-460.8968948044163	6750.576766133659	876.1137431669154	-489.2927802350247	6749.445042688293	864.3354330849695	-506.9437042885098	6753.117663658983	854.1454427196185	-521.5514896221628	6791.1546930531695	901.8463324811098	-420.1241792317009	6762.663803385644	883.1903169585634	-452.9395813143909	6748.663108946051	862.7463924974905	-483.2067862544883	6747.287959427125	848.0955181887243	-504.15725868929445	6751.301728926469	836.7315455396658	-519.9732397768416	6791.147659508294	897.1547436204735	-415.92761411993376	6765.362791486141	876.52086790468	-441.5950053049248	6753.184711701628	857.7918409436847	-467.1904412841824	6751.871551144116	843.1766312770511	-486.98165114754096	6755.651809185183	832.2626193949161	-501.6549619797576	6792.631155922334	891.7587731258557	-410.3085680680671	6769.60546898486	869.6835616386384	-430.28475642027706	6760.005749122018	853.3558882726688	-449.44336851401704	6759.121469465617	842.0520490350194	-463.2322791946547	6762.512488191394	832.0137000197769	-475.85815887240767
180	0.746	6921.0129	906.651	56.2195	6986.656071875931	886.0265925455101	-1.6166196693900146	6905.617743216966	482.61772621134173	-77.70285869507894	6926.663244606714	105.8106476635986	-164.22523065846906	6851.70872391029	28.684357679643547	-6.234220145695373	6863.196530445415	898.379091117715	125.40547239450085	6804.199495185304	494.75259723317953	220.7889416288486	6757.908443704881	63.278219557692516	295.0958926369172	6627.560266657092	-14.541558454815963	179.03551657172744	6883.881769540861	1035.818478189147	6.955025206680251	6838.703281822232	1106.5761846799473	-42.100170742174974	6786.854391590685	1174.6678220154122	-96.15283633476804	6730.362290681459	1229.905490194677	-152.93887239519185	6669.3354890265755	1288.8648569201532	-212.92159508888554	6612.348709821833	1342.169498719978	-266.670610041168	6490.941084097519	1431.7264861916397	-318.72907777553087	6711.872643105823	1271.3409566689384	-213.94493124256692	6785.235327233909	1284.0884740260328	-328.3023670669059	6791.083480613006	1024.3493468241759	-360.703415843519	6830.204598640279	881.9255136960942	-540.4791857695615	6840.325589172103	892.3087127761768	-563.1210445164663	6829.881654777761	894.7569933847607	-589.1133742984132	6822.164006272067	893.0769442040406	-607.2576956398465	6815.349884728091	888.7805534338394	-622.4208357974637	6841.794231562934	880.9141962776058	-565.4392398888866	6848.617328748793	867.7345443477893	-603.3747208917803	6841.969639592139	859.6990980643388	-629.3159553215492	6831.414173232119	859.1072848051796	-642.2132498317442	6818.345176067991	861.5879524599476	-650.7093566119578	6839.806137001446	872.2201916157811	-564.2147455770174	6845.389072467198	854.6622404016902	-600.5536743557727	6837.836429766697	844.7909838524301	-628.5755307519796	6824.9582974866435	843.547705419525	-643.9987751278677	6810.58875430516	846.0047078682937	-653.2285149837674	6838.341599965848	866.3779120966644	-562.3940705854534	6842.407719842258	845.4647888610058	-593.4170500060881	6835.50945623856	835.7616741696131	-617.4921039294146	6822.919990202187	833.9786574832218	-632.1837535725042	6809.329623388155	836.0122246694243	-640.7742221422868	6835.5566140467545	860.3120637981426	-559.0982729884017	6837.954386423758	837.2650769442721	-585.5746567366762	6831.919950063484	827.8716327146295	-604.1733612325868	6822.490164167741	825.7857275432326	-614.5607137736259	6810.309169241173	827.1351515239509	-621.9812450287938	6666.680913177835	1267.7525100073833	-170.55959615842553	6598.163101900744	1206.3136120724541	-81.46882577047502	6690.027876343915	1039.2393800343839	-237.5101478456574	6810.756720217984	908.4116501710031	-398.1108799582371	6795.858145737677	916.7225953552883	-425.597846365208	6788.386523644822	903.445479071413	-459.4317942957455	6782.358508121172	891.4613002720046	-481.7205093393235	6776.627640460877	879.1283301263932	-499.21241664061495	6790.204796022353	909.0515977577713	-422.9497127108789	6761.496020001551	893.8905751154794	-458.81214395600637	6748.620892368482	875.9609078245012	-487.00460754486187	6747.415026039699	864.1704268509577	-504.5623339230982	6751.002796680121	853.9773088982679	-519.1154209687629	6789.298405197154	901.7816554652552	-418.3922589492098	6760.804433351592	883.0638394627715	-450.90534538063866	6746.737503477365	862.579714154857	-480.95530041963457	6745.274245043038	847.9137895785221	-501.7956002104022	6749.19582515377	836.5462166025374	-517.5528335293623	6789.307408728382	897.0863384805594	-414.2232236701509	6763.535424248703	876.3935862861896	-439.6428141994415	6751.302469788724	857.6288377121907	-465.0542018735201	6749.90583801403	842.9987484725609	-484.74196017128395	6753.600133546022	832.0811796725857	-499.3613690586824	6790.805180125324	891.6884750908439	-408.6473852585822	6767.802083338344	869.5577843120673	-428.42194914152606	6758.162817566198	853.200699148748	-447.4425450862757	6757.219780026707	841.8856161940494	-461.16052692593615	6760.535873679743	831.8438915971362	-473.7412648345094
181	0.75	6921.0129	906.651	56.2195	6986.183980128355	885.8154445460702	-1.811432953457805	6905.122182033617	482.36631503653325	-77.62683363587114	6926.944599689901	105.72485358916512	-164.4331116200471	6851.994895575827	28.56028221014372	-6.458852181924563	6863.654872030466	898.5876517468206	125.60237935950025	6804.763542372	494.9744803098425	221.0903655402105	6758.085422587658	63.5026509793146	295.01010032495185	6627.8394169970725	-14.432471499682434	178.9234797448513	6883.954995196246	1035.8370224374298	6.954044941813717	6838.750409931415	1106.6157953603924	-42.044335788594644	6786.862876849299	1174.7320317578954	-96.02149878021352	6730.313844612033	1229.9965346351578	-152.70617358017276	6669.225479345607	1288.9805623176594	-212.5816987188846	6612.1858074725005	1342.3092419680536	-266.23119393563746	6490.730642994181	1431.8397593210598	-318.20775696047053	6711.632636656907	1271.3144516727016	-213.66432539621047	6784.481066863933	1283.6289887941373	-327.7971203581563	6789.71778517	1024.37384651915	-359.47652439512575	6827.853143267052	882.2238980504374	-538.74141529724	6837.828265757991	892.6991620726227	-561.3344126681777	6827.344791503341	895.1671826823477	-587.1818871194753	6819.606691224928	893.4919996887377	-605.2269928914401	6812.781579947735	889.1920683573783	-620.3088428535514	6839.297897713806	881.2871637458544	-563.6636265285351	6845.9735863561	868.1629744646962	-601.5060938062271	6839.282183518524	860.1345747772198	-627.3316160429517	6828.7375212185325	859.5327550465018	-640.1348511441181	6815.703085817957	861.9954356312438	-648.5381835505896	6837.336998725396	872.5655747946154	-562.4444658300627	6842.790849621867	855.0468088183384	-598.6955713166365	6835.194646665713	845.1793825326283	-626.5921044616944	6822.3315359005865	843.9221798026426	-641.9023215086349	6808.0007754563685	846.3586008595682	-651.0307690592413	6835.894856229704	866.7026649875258	-560.6304426484062	6839.863031443599	845.8075507041633	-591.5819813587282	6832.931241973954	836.1037654182862	-615.5488984347107	6820.3586241264375	834.3051885586622	-630.1321058908907	6806.805840660772	836.3183951191307	-638.6276097948489	6833.1445269068845	860.6092790903331	-557.340988390675	6835.471834313642	837.5627682115337	-583.7574392090776	6829.417912241619	828.1624518496193	-602.2715683814704	6820.003976017605	826.0621324936106	-612.5807982661761	6807.858322975042	827.3917566038124	-619.9177676885793	6666.751294846747	1267.9987703288452	-170.23568400324302	6598.819634021584	1207.1739455493362	-80.96252378913849	6689.623945479765	1039.647926369126	-236.38731573437778	6808.869915872124	908.3784104064863	-396.52422994315805	6793.933053349503	916.6695656159065	-423.773762049939	6786.349976535233	903.3685631767728	-457.39000555869495	6780.253445711177	891.3642138642833	-479.53302138371293	6774.473246148131	879.0114033290267	-496.9085215012151	6788.318888455546	908.9828641911155	-421.120792482418	6759.60162454745	893.7597290942965	-456.65323888363696	6746.666799340229	875.7933107841652	-484.6387026322302	6745.387537554639	863.9912350808713	-502.1009541497307	6748.890085816339	853.7961109120795	-516.5974225031046	6787.434991663861	901.7057735925688	-416.5919747247548	6758.944923378115	882.9235065889759	-448.79868663572665	6744.815779961628	862.3985449567057	-478.6276407542863	6743.265377765994	847.7182797482503	-499.35509411892497	6747.094392225457	836.3483404863741	-515.0515141592066	6787.4607078461995	897.0068901274292	-412.45133458575094	6761.7084966560815	876.2529849123019	-437.62024984005626	6749.42429691994	857.4519960889816	-462.84448283515	6747.94519069186	842.8077304974337	-482.4262970697029	6751.55320111041	831.887773961625	-496.9899029393929	6788.973229260844	891.607512879302	-406.91980678304003	6765.999385772594	869.4194399940204	-426.49080157769225	6756.323643528607	853.0325927528659	-445.3711607533079	6755.3226540700125	841.7068104678472	-459.0165247977843	6758.563582295192	831.6627640969068	-471.5505111851668
